<?xml version="1.0" encoding="UTF-8"?>
<svg xmlns="http://www.w3.org/2000/svg" version="1.1" viewBox="0 0 32 32">
  <defs>
    <style>
      .cls-1 {
        fill: #40827b;
      }

      .cls-2 {
        fill: #20d296;
      }

      .cls-3 {
        fill: #fff;
      }

      .cls-4 {
        fill: #5cbaad;
      }
    </style>
  </defs>
  <!-- Generator: Adobe Illustrator 28.6.0, SVG Export Plug-In . SVG Version: 1.2.0 Build 709)  -->
  <g>
    <g id="Layer_1">
      <g>
        <rect class="cls-3" width="32" height="32"/>
        <g>
          <rect class="cls-2" x="21.3" y="3" width="7.1" height="6.8" rx=".6" ry=".6"/>
          <path class="cls-4" d="M19.5,11.4v6.4c0,.3-.3.6-.6.6h-5.9c-.3,0-.6-.3-.6-.6v-6.4c0-.3.3-.6.6-.6h5.9c.3,0,.6.3.6.6Z"/>
          <path class="cls-1" d="M10.7,20.1v8.3c0,.3-.3.6-.6.6h-5.9c-.3,0-.6-.3-.6-.6v-8.3c0-.3.3-.6.6-.6h5.9c.3,0,.6.3.6.6h0Z"/>
        </g>
      </g>
    </g>
  </g>
</svg>